HIERARCHY
ROOT Hips
{
	OFFSET 0.00000 0.00000 0.00000
	CHANNELS 6 Xposition Yposition Zposition Zrotation Yrotation Xrotation 
	JOINT LHipJoint
	{
		OFFSET 0 0 0
		CHANNELS 3 Zrotation Yrotation Xrotation
		JOINT LeftUpLeg
		{
			OFFSET 1.29432 -1.88279 0.59910
			CHANNELS 3 Zrotation Yrotation Xrotation
			JOINT LeftLeg
			{
				OFFSET 2.63039 -7.22694 0.00000
				CHANNELS 3 Zrotation Yrotation Xrotation
				JOINT LeftFoot
				{
					OFFSET 2.70674 -7.43672 0.00000
					CHANNELS 3 Zrotation Yrotation Xrotation
					JOINT LeftToeBase
					{
						OFFSET 0.15066 -0.41394 2.09027
						CHANNELS 3 Zrotation Yrotation Xrotation
						End Site
						{
							OFFSET 0.00000 -0.00000 1.07518
						}
					}
				}
			}
		}
	}
	JOINT RHipJoint
	{
		OFFSET 0 0 0
		CHANNELS 3 Zrotation Yrotation Xrotation
		JOINT RightUpLeg
		{
			OFFSET -1.37068 -1.88279 0.59910
			CHANNELS 3 Zrotation Yrotation Xrotation
			JOINT RightLeg
			{
				OFFSET -2.57023 -7.06166 0.00000
				CHANNELS 3 Zrotation Yrotation Xrotation
				JOINT RightFoot
				{
					OFFSET -2.76461 -7.59570 0.00000
					CHANNELS 3 Zrotation Yrotation Xrotation
					JOINT RightToeBase
					{
						OFFSET -0.24175 -0.64785 2.19719
						CHANNELS 3 Zrotation Yrotation Xrotation
						End Site
						{
							OFFSET -0.00000 -0.00000 1.14803
						}
					}
				}
			}
		}
	}
	JOINT LowerBack
	{
		OFFSET 0 0 0
		CHANNELS 3 Zrotation Yrotation Xrotation
		JOINT Spine
		{
			OFFSET -0.03138 2.03983 -0.23106
			CHANNELS 3 Zrotation Yrotation Xrotation
			JOINT Spine1
			{
				OFFSET -0.00325 2.06238 -0.06878
				CHANNELS 3 Zrotation Yrotation Xrotation
				JOINT Neck
				{
					OFFSET 0 0 0
					CHANNELS 3 Zrotation Yrotation Xrotation
					JOINT Neck1
					{
						OFFSET -0.00002 1.75318 0.18090
						CHANNELS 3 Zrotation Yrotation Xrotation
						JOINT Head
						{
							OFFSET 0.08806 1.75856 -0.25387
							CHANNELS 3 Zrotation Yrotation Xrotation
							End Site
							{
								OFFSET 0.02554 1.78597 -0.10684
							}
						}
					}
				}
				JOINT LeftShoulder
				{
					OFFSET 0 0 0
					CHANNELS 3 Zrotation Yrotation Xrotation
					JOINT LeftArm
					{
						OFFSET 3.09657 1.33597 -0.04414
						CHANNELS 3 Zrotation Yrotation Xrotation
						JOINT LeftForeArm
						{
							OFFSET 5.34298 -0.00000 -0.00000
							CHANNELS 3 Zrotation Yrotation Xrotation
							JOINT LeftHand
							{
								OFFSET 3.67262 -0.00000 -0.00000
								CHANNELS 3 Zrotation Yrotation Xrotation
								JOINT LeftFingerBase
								{
									OFFSET 0 0 0
									CHANNELS 3 Zrotation Yrotation Xrotation
									JOINT LeftHandIndex1
									{
										OFFSET 0.59930 -0.00000 -0.00000
										CHANNELS 3 Zrotation Yrotation Xrotation
										End Site
										{
											OFFSET 0.48317 -0.00000 -0.00000
										}
									}
								}
								JOINT LThumb
								{
									OFFSET 0 0 0
									CHANNELS 3 Zrotation Yrotation Xrotation
									End Site
									{
										OFFSET 0.49055 -0.00000 0.49055
									}
								}
							}
						}
					}
				}
				JOINT RightShoulder
				{
					OFFSET 0 0 0
					CHANNELS 3 Zrotation Yrotation Xrotation
					JOINT RightArm
					{
						OFFSET -3.16460 1.32273 -0.23382
						CHANNELS 3 Zrotation Yrotation Xrotation
						JOINT RightForeArm
						{
							OFFSET -5.54967 -0.01834 0.03348
							CHANNELS 3 Zrotation Yrotation Xrotation
							JOINT RightHand
							{
								OFFSET -3.69401 -0.00000 0.00000
								CHANNELS 3 Zrotation Yrotation Xrotation
								JOINT RightFingerBase
								{
									OFFSET 0 0 0
									CHANNELS 3 Zrotation Yrotation Xrotation
									JOINT RightHandIndex1
									{
										OFFSET -0.63811 -0.00000 0.00000
										CHANNELS 3 Zrotation Yrotation Xrotation
										End Site
										{
											OFFSET -0.51446 -0.00000 0.00000
										}
									}
								}
								JOINT RThumb
								{
									OFFSET 0 0 0
									CHANNELS 3 Zrotation Yrotation Xrotation
									End Site
									{
										OFFSET -0.52232 -0.00000 0.52232
									}
								}
							}
						}
					}
				}
			}
		}
	}
}
MOTION
Frames: 15
Frame Time: .0083333
6.1776 11.2629 10.6198 199.3410 -21.4118 166.7750 0.0000 0.0000 0.0000 19.4322 -3.8839 -85.3401 19.1123 19.9811 87.4038 -0.0482 -8.9402 11.8108 0.4027 4.0741 11.2851 0.0000 0.0000 0.0000 -13.1626 11.4658 -45.0963 -13.0513 -18.8006 69.2847 0.1538 -6.9949 -3.5310 -1.2533 7.0975 -20.0046 -19.6951 15.0325 43.1520 -7.1150 1.8828 16.4481 0.3410 -2.6528 -0.4194 -16.0770 -19.2360 -2.5150 39.5340 -27.1713 -11.5342 11.8242 -15.7768 5.7536 0.0000 0.0000 0.0000 9.8529 -50.4503 -18.5814 130.0269 -52.9846 -93.8474 -0.0000 0.0000 -5.0288 10.2115 18.4364 3.2605 -7.1250 0.0000 -0.0000 -17.2145 47.9192 -1.2754 0.0000 0.0000 0.0000 66.0056 3.3924 -12.8508 -161.7370 28.4926 -115.3260 0.0000 0.0000 10.4450 -54.0330 35.7939 -38.8682 7.1250 -0.0000 -0.0000 -10.4718 20.1530 -13.6154
6.1631 11.2797 10.6206 200.5250 -21.2621 166.4830 0.0000 0.0000 0.0000 20.4328 -3.1983 -85.7764 19.2024 19.9847 87.6673 -0.0215 -9.0107 12.4407 0.7075 5.3758 14.9837 0.0000 0.0000 0.0000 -12.2668 12.8000 -44.8478 -13.1081 -18.8208 69.4609 0.1759 -7.4460 -3.4769 -1.0135 6.4052 -17.9648 -19.1976 14.7531 42.6438 -6.8854 1.9935 16.7838 0.3969 -2.6245 -0.0163 -16.8015 -19.2712 -4.1106 39.7898 -27.3474 -10.7963 11.7407 -15.6355 6.4770 0.0000 0.0000 0.0000 9.4942 -49.4630 -19.3759 129.7725 -53.0868 -93.6441 -0.0000 0.0000 -5.3343 9.8524 18.6781 3.1834 -7.1250 0.0000 -0.0000 -17.6396 48.1016 -1.3902 0.0000 0.0000 0.0000 65.9163 3.6304 -12.5329 -161.8385 28.3635 -115.3743 0.0000 0.0000 11.1954 -54.0345 35.4298 -38.6216 7.1250 -0.0000 -0.0000 -10.6089 19.7614 -13.7560
6.1538 11.2885 10.6150 200.9490 -21.1863 166.3330 0.0000 0.0000 0.0000 20.3975 -2.6095 -85.9500 19.2091 19.9850 87.6871 -0.0592 -9.5934 12.6010 0.6092 4.9958 13.8964 0.0000 0.0000 0.0000 -12.0950 14.0283 -44.5823 -13.1849 -18.8479 69.6988 0.1795 -7.4977 -2.3548 -1.7399 8.3020 -23.6351 -19.5712 14.7556 42.2081 -6.5592 1.9998 17.0516 0.9020 -2.7174 0.3715 -17.6110 -19.4092 -5.5216 39.6137 -27.5662 -10.0558 11.5446 -15.4899 7.0924 -0.0000 -0.0000 0.0000 8.5395 -48.2468 -19.9992 129.5711 -53.1670 -93.4830 -0.0000 0.0000 -5.2865 9.1892 18.9433 3.0062 -7.1250 0.0000 -0.0000 -18.3564 48.2626 -1.5253 -0.0000 -0.0000 0.0000 65.3598 4.1146 -12.0447 -161.8521 28.3462 -115.3807 0.0000 0.0000 11.8585 -55.0053 35.4056 -39.6103 7.1250 -0.0000 -0.0000 -11.0986 20.3302 -14.4738
6.1320 11.2973 10.6143 200.9070 -21.3334 166.1050 0.0000 0.0000 0.0000 19.8843 -2.5767 -85.7505 19.2262 19.9856 87.7370 -0.0937 -9.9535 12.5070 0.6059 4.9825 13.8588 0.0000 0.0000 0.0000 -12.3313 14.7526 -44.0408 -13.2498 -18.8705 69.8997 0.1465 -6.9348 -0.9362 -3.0725 10.8115 -31.6469 -20.0386 15.0136 42.0479 -6.3657 2.1427 17.2023 1.2286 -2.7338 0.5842 -17.6217 -19.3859 -5.6941 39.2949 -27.4975 -9.8541 11.4450 -15.3915 7.0872 0.0000 -0.0000 0.0000 7.8567 -47.5005 -20.3329 129.1662 -53.3263 -93.1585 -0.0000 0.0000 -4.8783 9.1569 18.7902 2.9722 -7.1250 0.0000 -0.0000 -18.3238 48.1119 -1.4524 0.0000 -0.0000 0.0000 65.2259 4.1131 -11.7603 -161.7797 28.4383 -115.3463 0.0000 0.0000 12.6827 -56.8206 35.6336 -41.7012 7.1250 -0.0000 -0.0000 -11.9070 21.7339 -15.7256
6.1056 11.3051 10.6141 201.2450 -21.5340 165.8140 0.0000 0.0000 0.0000 19.7706 -2.5660 -85.7643 19.2525 19.9866 87.8141 -0.1193 -10.3529 12.6673 0.6290 5.0750 14.1226 0.0000 0.0000 0.0000 -12.1964 15.1211 -43.6922 -13.3366 -18.9004 70.1679 0.1402 -6.9112 -0.4247 -3.5084 11.4758 -33.9020 -19.9355 15.3556 41.9152 -6.3130 2.7442 16.9448 1.0548 -2.3691 0.2676 -16.7389 -19.0493 -3.4127 39.3067 -26.9798 -10.5651 11.7818 -15.4257 6.2000 0.0000 0.0000 0.0000 7.0891 -47.8336 -19.3590 128.7836 -53.4745 -92.8514 -0.0000 0.0000 -4.7122 9.7202 18.4755 3.1072 -7.1250 0.0000 -0.0000 -17.6812 47.8890 -1.2985 0.0000 0.0000 0.0000 66.1230 2.4946 -11.9271 -161.8946 28.2919 -115.4009 0.0000 0.0000 13.6203 -58.6955 35.1845 -43.4568 7.1250 -0.0000 -0.0000 -13.0091 22.5162 -17.3304
6.0721 11.3046 10.6283 201.3660 -21.9003 165.5670 0.0000 0.0000 0.0000 19.5711 -2.9245 -85.8442 19.3077 19.9885 87.9756 -0.1255 -10.4104 12.6417 0.6451 5.1382 14.3030 0.0000 0.0000 0.0000 -12.3629 15.2588 -43.3433 -13.4220 -18.9293 70.4313 0.1904 -7.9024 -1.0466 -2.5816 9.9848 -28.9276 -19.7414 15.4510 42.3318 -6.2525 2.8243 16.8771 0.9898 -2.3053 0.1026 -16.9167 -18.9805 -3.1668 39.6816 -26.9389 -10.5266 11.9763 -15.4296 6.2766 0.0000 0.0000 0.0000 6.2089 -47.7051 -19.0229 128.4736 -53.5929 -92.6021 -0.0000 0.0000 -5.1752 10.2269 18.4419 3.2665 -7.1250 0.0000 -0.0000 -17.2024 47.9266 -1.2776 0.0000 0.0000 0.0000 66.4623 1.9560 -11.9274 -162.1242 27.9978 -115.5092 0.0000 0.0000 13.5133 -59.2567 35.2498 -44.1378 7.1250 -0.0000 -0.0000 -13.2610 22.9780 -17.7342
6.0389 11.2975 10.6434 201.1880 -22.3253 165.4750 0.0000 0.0000 0.0000 19.1211 -3.3968 -85.9655 19.3769 19.9907 88.1778 -0.1148 -10.1533 12.4204 0.7046 5.3651 14.9529 0.0000 0.0000 0.0000 -12.8184 15.2740 -43.0654 -13.4895 -18.9518 70.6392 0.2579 -8.9844 -2.6190 -0.9514 6.2115 -17.3993 -19.7543 15.4868 42.6612 -6.3161 2.7309 16.8688 0.9326 -2.3479 0.0516 -17.1788 -18.9956 -3.7259 39.8555 -27.0868 -9.8900 11.9573 -15.3703 6.6905 -0.0000 -0.0000 0.0000 5.4780 -47.2233 -18.9529 127.9846 -53.7767 -92.2081 -0.0000 0.0000 -5.4442 10.6948 18.4732 3.4246 -7.1250 0.0000 -0.0000 -16.7837 48.0216 -1.2851 -0.0000 -0.0000 0.0000 66.8015 1.7095 -11.6787 -162.1018 28.0267 -115.4987 0.0000 0.0000 14.6559 -60.0404 34.4706 -44.4771 7.1250 -0.0000 -0.0000 -13.9590 22.7009 -18.6744
6.0163 11.2836 10.6435 201.2630 -22.6045 165.3670 0.0000 0.0000 0.0000 18.7985 -3.3744 -86.2849 19.4533 19.9928 88.4013 -0.1172 -10.1964 12.4463 0.7376 5.4866 15.3017 0.0000 0.0000 0.0000 -12.9129 15.2725 -43.0685 -13.5661 -18.9771 70.8750 0.2807 -9.3451 -3.5539 -0.3052 3.5516 -9.8185 -19.3783 15.4918 42.8095 -6.5749 2.8128 16.8759 0.4748 -2.2667 0.0155 -16.7467 -18.9905 -3.9231 39.9874 -27.2159 -9.4066 11.8853 -15.3780 6.8687 0.0000 0.0000 0.0000 5.2930 -46.9457 -18.9546 127.2511 -54.0458 -91.6153 -0.0000 0.0000 -4.8133 11.1531 18.6438 3.6064 -7.1250 0.0000 -0.0000 -16.4260 48.2506 -1.3511 0.0000 0.0000 0.0000 67.6045 1.2754 -11.9097 -162.1447 27.9714 -115.5189 0.0000 0.0000 14.9657 -59.7030 34.6213 -44.1980 7.1250 -0.0000 -0.0000 -13.7314 22.6205 -18.3466
5.9968 11.2700 10.6453 201.5040 -22.8620 165.1840 0.0000 0.0000 0.0000 18.6421 -3.3105 -86.6151 19.5154 19.9944 88.5831 -0.1187 -10.2882 12.5707 0.7469 5.5204 15.3991 0.0000 0.0000 0.0000 -12.8038 15.3065 -43.0680 -13.6610 -19.0080 71.1664 0.2678 -9.1315 -3.1494 -0.3418 3.7569 -10.3937 -18.4862 15.6054 43.2431 -7.0068 3.1723 16.6564 -0.4762 -1.9623 -0.3538 -15.4093 -19.0116 -2.7181 40.2738 -27.2498 -9.8996 11.9452 -15.6264 6.3661 -0.0000 -0.0000 0.0000 5.3659 -47.4378 -18.3709 126.6431 -54.2628 -91.1224 -0.0000 0.0000 -4.5872 11.7200 19.2168 3.9062 -7.1250 0.0000 -0.0000 -16.1216 48.8873 -1.5832 -0.0000 -0.0000 0.0000 69.1725 -0.0342 -12.7100 -162.4137 27.6241 -115.6443 0.0000 0.0000 14.8751 -59.7335 34.8838 -44.4221 7.1250 -0.0000 -0.0000 -13.6430 22.9248 -18.2603
5.9800 11.2679 10.6502 201.5630 -23.1019 165.1090 0.0000 0.0000 0.0000 18.3311 -3.3271 -86.7998 19.5382 19.9949 88.6498 -0.1207 -10.3479 12.6320 0.7916 5.6792 15.8565 0.0000 0.0000 0.0000 -12.8501 15.3604 -43.0599 -13.7701 -19.0428 71.5013 0.2448 -8.7448 -2.7268 -0.3151 3.6084 -9.9776 -19.5348 15.5227 42.7534 -6.3102 2.8926 16.9012 0.7938 -2.2402 0.0490 -17.0802 -18.9929 -3.6895 40.1669 -27.2445 -9.3846 12.0108 -15.4020 6.9415 -0.0000 -0.0000 0.0000 3.1467 -45.5189 -18.5750 126.0361 -54.4743 -90.6291 -0.0000 0.0000 -4.5318 12.2751 19.5713 4.1686 -7.1250 0.0000 -0.0000 -15.7418 49.3136 -1.7127 -0.0000 -0.0000 0.0000 67.4754 1.1037 -11.8892 -162.2421 27.8461 -115.5644 0.0000 0.0000 14.7240 -59.7428 35.3822 -44.7868 7.1250 -0.0000 -0.0000 -13.4487 23.4634 -18.0524
5.9721 11.2763 10.6481 201.4510 -23.1501 165.0640 0.0000 0.0000 0.0000 18.0018 -3.2159 -86.7193 19.5579 19.9953 88.7072 -0.1227 -10.3458 12.5892 0.8922 6.0205 16.8440 0.0000 0.0000 0.0000 -12.9010 15.3843 -43.1304 -13.8766 -19.0762 71.8273 0.2279 -8.4288 -3.1034 -0.0588 1.5648 -4.3045 -19.9645 15.6217 42.6971 -6.4376 2.8608 16.6618 0.8362 -2.2267 -0.1679 -17.1250 -18.9541 -3.0787 40.0332 -27.2520 -9.1133 12.0455 -15.4122 6.8914 0.0000 0.0000 0.0000 1.9949 -44.3085 -17.8635 125.3285 -54.7142 -90.0524 -0.0000 0.0000 -4.5913 12.7620 19.6795 4.3618 -7.1250 0.0000 -0.0000 -15.3264 49.4921 -1.7341 0.0000 0.0000 0.0000 67.7479 0.8479 -11.4046 -162.1909 27.9121 -115.5405 0.0000 0.0000 14.9695 -59.5448 35.1991 -44.4305 7.1250 -0.0000 -0.0000 -13.4240 23.1275 -17.9787
5.9630 11.2930 10.6468 201.3210 -23.1829 164.9820 0.0000 0.0000 0.0000 17.5858 -2.9394 -86.6265 19.5871 19.9959 88.7928 -0.1338 -10.4882 12.6120 0.9451 6.1916 17.3413 0.0000 0.0000 0.0000 -12.8700 15.2847 -43.1388 -13.9298 -19.0926 71.9901 0.1959 -7.8257 -3.1883 -0.0276 1.0734 -2.9508 -20.5974 16.0895 42.2935 -6.1493 3.2897 16.7801 1.2368 -2.1122 0.0262 -16.9005 -19.1985 -2.2917 39.6568 -27.4035 -9.6574 11.9230 -15.5891 6.5011 0.0000 0.0000 0.0000 1.0025 -43.7244 -17.7477 124.5580 -54.9677 -89.4224 -0.0000 0.0000 -4.1681 13.4320 19.8376 4.6335 -7.1250 0.0000 -0.0000 -14.7554 49.7483 -1.7614 0.0000 0.0000 0.0000 67.7265 0.7811 -11.5407 -162.0716 28.0654 -115.4845 0.0000 0.0000 15.2772 -60.5272 34.9904 -45.4173 7.1250 -0.0000 -0.0000 -13.9952 23.6133 -18.8359
5.9483 11.2913 10.6363 201.2180 -23.3348 164.7750 0.0000 0.0000 0.0000 17.3043 -2.9903 -86.4784 19.6239 19.9966 88.9003 -0.1348 -10.5045 12.6193 1.0021 6.3703 17.8627 0.0000 0.0000 0.0000 -12.8918 15.1718 -42.9647 -13.9568 -19.1009 72.0725 0.1351 -6.5030 -2.2885 -0.6462 5.1425 -14.3155 -20.8775 16.2663 42.1948 -6.1206 3.3672 16.9248 1.3361 -2.1370 0.2139 -17.2184 -19.0099 -3.5105 39.9961 -27.4001 -8.6132 11.9501 -15.3693 7.1677 -0.0000 0.0000 0.0000 -0.0012 -42.6558 -17.6389 124.0782 -55.1215 -89.0292 -0.0000 0.0000 -3.8366 14.6060 19.8493 5.0565 -7.1250 0.0000 -0.0000 -13.6447 49.9404 -1.6896 -0.0000 0.0000 0.0000 67.8579 1.0113 -11.4540 -161.9765 28.1873 -115.4396 0.0000 0.0000 15.2572 -61.0993 35.6963 -46.5862 7.1250 -0.0000 -0.0000 -13.9917 24.7795 -18.9655
5.9356 11.2888 10.6359 201.5050 -23.4423 164.3580 0.0000 0.0000 0.0000 16.9803 -2.6054 -86.4806 19.6322 19.9968 88.9247 -0.1477 -10.8612 12.9816 1.0834 6.6156 18.5813 0.0000 0.0000 0.0000 -12.4702 15.2058 -42.7142 -13.9683 -19.1044 72.1077 0.1251 -6.3146 -3.2083 -0.6448 5.1371 -14.3000 -20.9152 16.3559 42.2139 -5.9714 3.4516 17.0312 1.4722 -2.1345 0.3160 -17.3562 -18.9445 -4.0947 39.9980 -27.4205 -8.0407 11.9054 -15.2536 7.4760 -0.0000 -0.0000 0.0000 -1.2644 -41.4972 -17.5397 123.5392 -55.2906 -88.5865 -0.0000 0.0000 -3.4346 16.1220 19.9500 5.6326 -7.1250 0.0000 -0.0000 -12.2315 50.2782 -1.6123 -0.0000 -0.0000 0.0000 67.9441 1.2948 -11.2545 -161.9649 28.2021 -115.4342 0.0000 0.0000 15.2497 -60.4580 36.0685 -46.0912 7.1250 -0.0000 -0.0000 -13.5215 24.6993 -18.2933
5.9185 11.3317 10.6726 201.7950 -23.6311 164.0120 0.0000 0.0000 0.0000 17.6813 -3.9964 -85.7030 19.5542 19.9952 88.6965 -0.0983 -9.8969 12.3233 1.0692 6.5735 18.4579 0.0000 0.0000 0.0000 -11.8694 15.0273 -42.3909 -13.9292 -19.0924 71.9882 0.1093 -6.0889 -4.0151 -0.8331 5.8226 -16.2707 -20.8463 16.5050 42.3870 -5.8408 3.6224 17.0216 1.5103 -2.0535 0.2520 -17.0334 -18.8627 -3.6921 40.1371 -27.3105 -8.2876 11.9933 -15.2881 7.2791 0.0000 0.0000 0.0000 -2.2516 -40.6691 -17.4260 122.6088 -55.5737 -87.8204 -0.0000 0.0000 -2.5934 16.7987 20.3648 5.9974 -7.1250 0.0000 -0.0000 -11.7308 50.8027 -1.6973 0.0000 0.0000 0.0000 68.3240 1.4168 -11.2516 -161.8624 28.3330 -115.3856 0.0000 0.0000 15.6125 -59.7780 35.8303 -45.1402 7.1250 -0.0000 -0.0000 -13.2847 23.9621 -17.8797
